<svg width="40" height="40" viewBox="0 0 40 40" fill="none" xmlns="http://www.w3.org/2000/svg">
<rect x="0.5" y="11.1059" width="39" height="28.3941" rx="3.39189" stroke="#E4242F"/>
<g clip-path="url(#clip0_5_82)">
<path fill-rule="evenodd" clip-rule="evenodd" d="M16.3469 19.1554C16.0972 19.1551 15.8515 19.2211 15.6331 19.3471C15.4091 19.466 15.2204 19.6461 15.0872 19.8681C14.954 20.0901 14.8813 20.3457 14.877 20.6074V29.9977C14.8813 30.2594 14.954 30.515 15.0872 30.737C15.2204 30.959 15.4091 31.1391 15.6331 31.258C15.8555 31.3866 16.1062 31.4529 16.3606 31.4504C16.6149 31.448 16.8644 31.3768 17.0844 31.2439L24.3749 26.5492C24.5999 26.4312 24.789 26.2504 24.9211 26.0271C25.0531 25.8037 25.123 25.5465 25.1229 25.2843C25.1229 25.022 25.0528 24.7649 24.9206 24.5416C24.7883 24.3183 24.5991 24.1377 24.3741 24.0198L17.0836 19.3603L17.0701 19.3524C16.8494 19.223 16.6003 19.1551 16.3469 19.1554Z" fill="#E4242F"/>
</g>
<rect width="13.7947" height="1.23748" rx="0.618739" transform="matrix(0.61947 0.78502 -0.85456 0.519352 11.4497 0)" fill="#E4242F"/>
<rect width="13.6512" height="1.25459" rx="0.627297" transform="matrix(-0.591179 0.80654 -0.86788 -0.496775 28.302 0.731262)" fill="#E4242F"/>
<defs>
<clipPath id="clip0_5_82">
<rect width="12.2951" height="12.2951" fill="white" transform="translate(13.8524 19.1554)"/>
</clipPath>
</defs>
</svg>
