<?xml version="1.0" encoding="UTF-8"?><svg id="Layer_1" xmlns="http://www.w3.org/2000/svg" viewBox="0 0 2285 317"><defs><style>.cls-1{fill:#fff;}</style></defs><path class="cls-1" d="M115.23,.4h57.06l114.53,309.5h-51.52l-25.76-73.71H77.98l-25.76,73.71H.7L115.23,.4Zm78.86,190.61L144.95,50.33h-2.38l-49.14,140.68h100.66Z"/><path class="cls-1" d="M392.23,105.41c51.52,0,89.96,40.02,89.96,88.37v116.11h-45.57v-116.11c0-27.74-18.23-47.16-44.38-47.16s-44.38,19.42-44.38,47.16v116.11h-45.57v-116.11c0-48.35,38.44-88.37,89.96-88.37Z"/><path class="cls-1" d="M603.05,105.41c22.98,0,43.59,8.32,55.48,22.59h1.98V.4h45.57V309.89h-45.57v-17.83h-1.98c-12.28,15.06-32.89,24.17-55.48,24.17-54.29,0-100.26-48.35-100.26-105.81s45.57-105.01,100.26-105.01Zm60.63,105.01c0-36.46-24.17-63.8-56.27-63.8s-58.25,28.14-58.25,63.8,25.76,64.59,58.25,64.59,56.27-27.74,56.27-64.59Z"/><path class="cls-1" d="M831.28,105.41c9.11,0,17.44,1.19,22.19,2.77v40.02c-4.76-1.19-9.91-1.59-16.64-1.59-36.46,0-58.25,18.23-58.25,59.44v103.83h-45.57v-103.83c0-61.82,36.46-100.65,98.28-100.65Z"/><path class="cls-1" d="M856.25,210.03c0-59.05,45.97-104.62,106.2-104.62s106.21,45.57,106.21,104.62-46.37,106.2-106.21,106.2-106.2-46.76-106.2-106.2Zm106.2,64.99c33.29,0,59.84-28.93,59.84-64.99s-26.15-63.4-59.84-63.4-59.84,27.74-59.84,63.4,26.55,64.99,59.84,64.99Z"/><path class="cls-1" d="M1111.06,16.25c16.25,0,29.73,13.47,29.73,29.32,0,17.04-13.48,30.91-29.73,30.91s-30.11-13.87-30.11-30.91c0-15.85,13.87-29.32,30.11-29.32Zm-22.98,95.5h45.57v198.14h-45.57V111.75Z"/><path class="cls-1" d="M1253.33,105.41c22.98,0,43.59,8.32,55.48,22.59h1.98V.4h45.57V309.89h-45.57v-17.83h-1.98c-12.29,15.06-32.9,24.17-55.48,24.17-54.29,0-100.26-48.35-100.26-105.81s45.57-105.01,100.26-105.01Zm60.63,105.01c0-36.46-24.18-63.8-56.28-63.8s-58.25,28.14-58.25,63.8,25.76,64.59,58.25,64.59,56.28-27.74,56.28-64.59Z"/><path class="cls-1" d="M1554.78,.4h30.12l124.04,309.5h-30.12l-32.1-81.63h-153.76l-32.1,81.63h-30.11L1554.78,.4Zm82.03,202.5l-65.78-168.42h-2.38l-65.78,168.42h133.94Z"/><path class="cls-1" d="M1754.11,111.75v116.11c0,37.65,24.97,64.59,60.24,64.59s60.23-26.55,60.23-64.59V111.75h25.76v116.11c0,49.53-38.04,88.37-85.99,88.37s-86-38.84-86-88.37V111.75h25.76Z"/><path class="cls-1" d="M1974.81,130.38h-47.15v-18.62h47.15V40.42h25.76V111.75h56.67v18.62h-56.67v120.87c0,25.36,11.49,37.65,36.06,37.65,9.51,0,15.46-.4,20.61-1.59v22.59c-7.92,1.98-15.85,2.77-28.14,2.77-33.68,0-54.29-23.38-54.29-61.42v-120.87Z"/><path class="cls-1" d="M2080.22,210.03c0-59.05,44.39-104.62,102.24-104.62s102.24,45.57,102.24,104.62-44.78,106.2-102.24,106.2-102.24-46.76-102.24-106.2Zm102.24,82.43c42.01,0,75.69-36.85,75.69-82.43s-32.89-80.84-75.69-80.84-75.69,35.27-75.69,80.84,33.69,82.43,75.69,82.43Z"/></svg>