<svg version="1.1" id="Layer_1" xmlns:x="ns_extend;" xmlns:i="ns_ai;" xmlns:graph="ns_graphs;" xmlns="http://www.w3.org/2000/svg" xmlns:xlink="http://www.w3.org/1999/xlink" x="0px" y="0px" viewBox="0 0 380.6 50" style="enable-background:new 0 0 380.6 50;" xml:space="preserve">
 <style type="text/css">
  .st0{fill:#FFFFFF;}
	.st1{fill:url(#SVGID_1_);}
	.st2{fill:url(#SVGID_2_);}
 </style>
 <metadata>
  <sfw xmlns="ns_sfw;">
   <slices>
   </slices>
   <sliceSourceBounds bottomLeftOrigin="true" height="50" width="380.6" x="-197.6" y="0">
   </sliceSourceBounds>
  </sfw>
 </metadata>
 <g>
  <path class="st0" d="M97.1,12.6c-1.8,0-3.5,1.1-4.2,2.8L84,36.9h4.8c1.3,0,2.4-0.8,2.9-2l0.6-1.6h9.6l0.6,1.6c0.4,1.2,1.6,2,2.9,2
		h4.8l-8.9-21.6C100.6,13.7,99,12.6,97.1,12.6z M94.5,27.7l2.6-6.9l2.6,6.9H94.5z">
  </path>
  <path class="st0" d="M308.9,15.4c-0.7-1.7-2.4-2.8-4.2-2.8c-1.8,0-3.5,1.1-4.2,2.8l-8.9,21.6h4.8c1.3,0,2.4-0.8,2.9-2l0.6-1.6h9.6
		l0.6,1.6c0.4,1.2,1.6,2,2.9,2h4.8L308.9,15.4z M302.1,27.7l2.6-6.9l2.6,6.9H302.1z">
  </path>
  <path class="st0" d="M128.7,37.4c6.7,0,11.4-4.2,11.4-11.2V15.6c0-1.7-1.4-3-3.1-3h-3.3v13.3c0.1,3.2-1.2,5.5-5,5.5h0.1
		c-3.8,0-5.1-2.3-5-5.5V15.6c0-1.7-1.4-3-3.1-3h-3.3v13.6C117.4,33.1,122.1,37.4,128.7,37.4L128.7,37.4z">
  </path>
  <path class="st0" d="M156.8,18.6h4.7c4,0,5.7,2.5,5.7,6.1c0,3.6-1.7,6.1-5.7,6.1h-4.7V18.6z M150.6,37h11.9c6.4,0,11.2-5,11.2-12.2
		v0c0-7.2-4.9-12.2-11.2-12.2h-11.9V37z">
  </path>
  <path class="st0" d="M363.8,18.6h4.7c4,0,5.7,2.5,5.7,6.1c0,3.6-1.7,6.1-5.7,6.1h-4.7V18.6z M357.5,37h11.9c6.4,0,11.2-5,11.2-12.2
		v0c0-7.2-4.9-12.2-11.2-12.2h-11.9V37z">
  </path>
  <path class="st0" d="M190.2,37.1h-3c-1.9,0-3.5-1.5-3.5-3.4V12.8h3c1.9,0,3.5,1.5,3.5,3.4V37.1z">
  </path>
  <path class="st0" d="M218.6,12.8H200v3.1c0,1.7,1.4,3,3.1,3h4.6v18.3h6.4V18.9h7.6v-3.1C221.6,14.1,220.3,12.8,218.6,12.8z">
  </path>
  <path class="st0" d="M247.2,24.6c1.5-0.8,3-2.4,3-5.1c0-4.2-3.5-6.7-7.4-6.7H230v24.4h13.9c4,0,7.5-3,7.5-6.6
		C251.4,27.6,249.7,25.4,247.2,24.6z M236.4,18.5h5.6c1.3,0,2,0.7,2,1.9c0,1.2-0.9,1.9-2.2,1.9h-5.4V18.5z M242.6,31.5h-6.2v-4.3
		h6.4c1.7,0,2.2,1,2.2,2.2S244.2,31.5,242.6,31.5z">
  </path>
  <path class="st0" d="M285.6,25c0,7-5.9,12.6-13.1,12.6c-7.3,0-13.1-5.7-13.1-12.6c0-7,5.9-12.6,13.1-12.6
		C279.7,12.3,285.6,18,285.6,25z M272.4,18.3c-3.7,0-6.7,3-6.7,6.7s3,6.7,6.7,6.7c3.7,0,6.7-3,6.7-6.7S276.1,18.3,272.4,18.3z">
  </path>
  <path class="st0" d="M342.4,29.9c1.8-0.9,4.9-3.1,4.9-8.1c0-5.7-4-8.9-9.2-8.9H326v24.4h6.3v-6.5h3.3l3.8,5.2
		c0.6,0.8,1.5,1.3,2.5,1.3h5.9L342.4,29.9z M337.6,25h-5.3v-6.5h5.5c2.7,0,3.5,1.5,3.5,3.3C341.2,23.5,340.3,25,337.6,25z">
  </path>
  <g>
   <g>
    <linearGradient id="SVGID_1_" gradientUnits="userSpaceOnUse" x1="53.0583" y1="70.6079" x2="16.0893" y2="33.6016" gradientTransform="matrix(1 0 0 -1 0 77.9178)">
     <stop offset="0" style="stop-color:#3459F8">
     </stop>
     <stop offset="0.4" style="stop-color:#3459F8">
     </stop>
     <stop offset="0.459" style="stop-color:#2F53E6">
     </stop>
     <stop offset="0.578" style="stop-color:#2442B5">
     </stop>
     <stop offset="0.7446" style="stop-color:#112869">
     </stop>
     <stop offset="0.85" style="stop-color:#041635">
     </stop>
    </linearGradient>
    <path class="st1" d="M16.3,23.6l7.6,7.6l2.4,2.4c-2.2-2.2-3.5-5.3-3.5-8.7c0-6.9,5.6-12.5,12.5-12.5c3.5,0,6.7,1.5,9,3.8
				c0.7,0.7,2.5,2.5,2.5,2.5l7.6,7.6c1.6,1.6,3.6,2.5,5.6,2.9c3.3,0.6,6.8-0.4,9.4-2.9l1.4-1.4L52.9,7.2c-1.6-1.6-3.4-2.9-5.4-4
				C43.9,1.1,39.8,0,35.4,0C23,0,12.8,9,10.7,20.7C12.8,21.1,14.8,22.1,16.3,23.6z">
    </path>
    <linearGradient id="SVGID_2_" gradientUnits="userSpaceOnUse" x1="17.6994" y1="35.2305" x2="54.6686" y2="72.2369" gradientTransform="matrix(1 0 0 -1 0 77.9178)">
     <stop offset="0" style="stop-color:#3478F8">
     </stop>
     <stop offset="0.4" style="stop-color:#3478F8">
     </stop>
     <stop offset="0.459" style="stop-color:#2F6FE6">
     </stop>
     <stop offset="0.578" style="stop-color:#2457B5">
     </stop>
     <stop offset="0.7446" style="stop-color:#113069">
     </stop>
     <stop offset="0.85" style="stop-color:#041635">
     </stop>
    </linearGradient>
    <path class="st2" d="M54.4,26.4l-7.6-7.6l-2.4-2.4c2.2,2.2,3.5,5.3,3.5,8.7c0,6.9-5.6,12.5-12.5,12.5c-3.5,0-6.7-1.5-9-3.8
				c-0.7-0.7-2.5-2.5-2.5-2.5l-7.6-7.6c-1.6-1.6-3.6-2.5-5.6-2.9c-3.3-0.6-6.8,0.4-9.4,2.9L0,25l17.8,17.8c1.6,1.6,3.4,2.9,5.4,4
				c3.6,2,7.7,3.1,12.1,3.1C47.7,50,58,41,60,29.3C58,28.9,56,27.9,54.4,26.4z">
    </path>
   </g>
  </g>
 </g>
</svg>