<svg xmlns="http://www.w3.org/2000/svg" xmlns:xlink="http://www.w3.org/1999/xlink" viewBox="0 0 188 26" role="img" aria-labelledby="clickfunnels-logo-title" aria-describedby="clickfunnels-logo-desc"><title id="clickfunnels-logo-title">ClickFunnels Logo Dark</title><desc id="clickfunnels-logo-desc">Official ClickFunnels logo in dark navy blue (#080436) with funnel icon</desc><defs><style>      .st0 { fill: none; }      .st1 { fill: #98c1d9; }      .st2 { fill: #9bb8e8; }      .st3 { fill: #f71735; }      .st4 { clip-path: url(#clippath); }    </style><clipPath id="clippath"><rect class="st0" y="0" width="188" height="25.9"></rect></clipPath></defs><g class="st4"><g><path class="st1" d="M9.3,21.5l-3.6,2.5-1.5-1.1,1.5-4.6-.4-.5H.6s-.6-1.8-.6-1.8l4-2.8v-.6L0,9.8l.6-1.7h4.4l4.3,13.4Z"></path><path class="st3" d="M10.6,4.1L12,0h1.8l1.5,4.6.6.2,4-2.8,1.5,1.1-1.5,4.6.4.5h4.9s.6,1.8.6,1.8l-3.5,2.5L10.6,4.1Z"></path><path class="st2" d="M5.9,2l-1.5,1.1,7.4,22.9h1.8l1.7-5,4.3,3.1,1.5-1.1-1.6-5h5.4s.6-1.7.6-1.7L5.9,2Z"></path><path class="st2" d="M34.6,13c0-5.8,2.9-9,8.8-9s8,2.4,8.3,7h-4.2c-.2-2.6-1.5-3.8-4.1-3.8s-4.6,1.9-4.6,5.8,1.4,5.8,4.6,5.8,4-1.3,4.1-3.9h4.2c-.1,4.6-3.1,7.1-8.3,7.1s-8.8-3.1-8.8-9ZM57.2,21.7h-3.8V4.3h3.8v17.4ZM63.5,4.3v3.3h-3.8v-3.3h3.8ZM63.4,9.3v12.3h-3.8v-12.3h3.8ZM78.9,13.5h-3.7c-.1-1.9-1-2.9-2.9-2.9s-3.2,1.3-3.2,4.2,1,4.2,3.2,4.2,2.8-.9,2.9-3h3.7c0,3.8-2.3,5.9-6.6,5.9s-7.2-2.5-7.2-7.1,2.5-7.1,7.2-7.1,6.5,2.1,6.6,5.8ZM80.4,21.7V4.3h3.7v9.3l5.3-5.5h4.3l-4.3,4.5,4.4,9.1h-3.8l-3.3-6.4-2.6,2.6v3.8h-3.7ZM95.2,21.7V4.3h12.8v3.2h-8.7v4.5h8.5v3.2h-8.5v6.5h-4.1ZM118.1,16.5v-8.4h3.8v13.6h-3l-.7-1.9c-.9,1.4-2.3,2.2-4.4,2.2s-4.5-1.2-4.5-4.3v-9.6h3.8v9c0,1.4.8,2,2.4,2s2.7-.9,2.7-2.6h0ZM124.4,21.7v-13.6h3.1l.7,2.2c.9-1.6,2.4-2.5,4.6-2.5s4.6,1.6,4.6,4.7v9.2h-3.8v-8.6c0-1.7-.7-2.4-2.5-2.4s-2.9,1-2.9,2.9v8h-3.8,0ZM139.7,21.7v-13.6h3.1l.7,2.2c.9-1.6,2.4-2.5,4.6-2.5s4.6,1.6,4.6,4.7v9.2h-3.8v-8.6c0-1.7-.7-2.4-2.5-2.4s-2.9,1-2.9,2.9v8h-3.8,0ZM161.3,21.9c-4.7,0-7.2-2.5-7.2-7.1s2.5-7.1,7.2-7.1,6.8,2.4,6.8,6.5,0,.9-.1,1.4h-10.1c.2,2.5,1.2,3.4,3.6,3.4s2.9-.6,3-1.9h3.6c-.3,3.1-2.5,4.7-6.7,4.7h0ZM161.4,10.4c-2.1,0-3.1.8-3.4,3h6.6c-.1-1.9-.9-3-3.2-3ZM173.6,21.7h-3.8V4.3h3.8v17.4ZM181.6,10.3c-1.9,0-2.6.5-2.6,1.4s.5,1.2,2,1.4l2,.3c3.6.4,4.9,1.6,4.9,4.2s-2,4.4-6.4,4.4-6.5-1.3-6.5-4.7h3.5c0,1.5.9,2.2,3,2.2s2.8-.4,2.8-1.5-.5-1.3-2.1-1.5l-2.2-.3c-3.1-.4-4.7-1.7-4.7-4s2.2-4.3,6.2-4.3,6,1.4,6,4.4h-3.4c0-1.3-.8-1.8-2.6-1.8h0Z"></path></g></g></svg>