<svg version="1.1" id="Layer_1" xmlns:x="ns_extend;" xmlns:i="ns_ai;" xmlns:graph="ns_graphs;" xmlns="http://www.w3.org/2000/svg" xmlns:xlink="http://www.w3.org/1999/xlink" x="0px" y="0px" viewBox="0 0 235.4 48.4" style="enable-background:new 0 0 235.4 48.4;" xml:space="preserve">
 <style type="text/css">
  .st0{fill:#FFFFFF;}
	.st1{fill:#FFFFFF;filter:url(#Adobe_OpacityMaskFilter);}
	.st2{mask:url(#mask0_61_758_1_);}
	.st3{fill:url(#SVGID_1_);}
	.st4{fill:#FFFFFF;filter:url(#Adobe_OpacityMaskFilter_1_);}
	.st5{mask:url(#mask1_61_758_1_);}
	.st6{fill:url(#SVGID_2_);}
 </style>
 <metadata>
  <sfw xmlns="ns_sfw;">
   <slices>
   </slices>
   <sliceSourceBounds bottomLeftOrigin="true" height="87" width="253.5" x="-82.6" y="-3.4">
   </sliceSourceBounds>
  </sfw>
 </metadata>
 <g>
  <path class="st0" d="M198,22.9c2.1-1.8,3.2-4.3,3.2-6.9c0-5.7-3.8-9.5-9.5-9.5h-8.5c-1.6,0-3,1.3-3,3v30.3c0,0.6,0.5,1.1,1.1,1.1
		H192c6.2,0,10.2-4,10.2-10.1C202.1,27.7,200.6,24.9,198,22.9L198,22.9z M192.1,36.5l-7.3,0V25.4l6.5,0c3.7,0,6.5,2.4,6.5,5.5
		C197.8,34.6,195.8,36.5,192.1,36.5L192.1,36.5z M184.8,21V10.8h7c3.3,0,5,1.8,5,5.1c0,2.8-2.6,5.1-5.9,5.1H184.8z">
  </path>
  <path class="st0" d="M93,6.6h-1.4c-1.3,0-2.2,0.8-3,2.5l-9.5,22.3L69.6,9.1c-0.8-1.8-1.7-2.5-3-2.5h-1.4c-0.3,0-0.5,0.2-0.6,0.5
		l-1.5,33.3c0,0.2,0,0.3,0.2,0.4c0.1,0.1,0.3,0.2,0.4,0.2h3.5c0.3,0,0.6-0.2,0.6-0.6l1-21.5l9.3,21.3c0.3,0.6,0.8,0.7,1,0.7
		c0.5,0,0.8-0.3,1-0.7l9.3-21.3l1,21.5c0,0.3,0.3,0.5,0.6,0.5h3.5c0.2,0,0.3-0.1,0.4-0.2c0.1-0.1,0.2-0.3,0.2-0.4L93.6,7.1
		C93.5,6.8,93.3,6.6,93,6.6L93,6.6z">
  </path>
  <path class="st0" d="M169.1,6.6h-1.4c-1.3,0-2.2,0.8-3,2.5l-9.5,22.3l-9.5-22.3c-0.8-1.8-1.7-2.5-3-2.5h-1.4
		c-0.3,0-0.6,0.2-0.6,0.5l-1.5,33.2c0,0.2,0,0.3,0.2,0.4c0.1,0.1,0.3,0.2,0.4,0.2h3.5c0.3,0,0.6-0.2,0.6-0.6l1-21.5l9.3,21.3
		c0.3,0.6,0.8,0.7,1,0.7c0.5,0,0.8-0.3,1-0.7l9.3-21.3l1,21.5c0,0.3,0.3,0.5,0.6,0.5h3.5c0.2,0,0.3-0.1,0.4-0.2
		c0.1-0.1,0.2-0.3,0.2-0.4l-1.5-33.3C169.7,6.8,169.4,6.6,169.1,6.6L169.1,6.6z">
  </path>
  <path class="st0" d="M117.4,6.6h-0.2c-3.4,0-5.9,2.2-6.7,5.9L104,40.2c0,0.2,0,0.4,0.1,0.5c0.1,0.1,0.3,0.2,0.5,0.2h3.5
		c0.3,0,0.5-0.2,0.6-0.5l2.7-11.4h11.7l2.7,11.4c0.1,0.3,0.3,0.5,0.6,0.5h3.5c0.2,0,0.4-0.1,0.5-0.2c0.1-0.1,0.2-0.3,0.1-0.5
		l-6.5-27.8C123.1,8.8,120.7,6.6,117.4,6.6z M122,24.4h-9.5l2.6-11.2c0.3-1.3,1-2,2.1-2h0.1c1,0,1.7,0.7,2,2L122,24.4L122,24.4z">
  </path>
  <path class="st0" d="M235,7.8V7.1c0-0.3-0.3-0.6-0.6-0.6h-1v0c-0.6,0.1-1.4,0.3-2,0.8c-0.7,0.7-1.1,1.6-1.1,2.8v18.9
		c0,3.4-1.9,7.4-7.3,7.4c-5.4,0-7.3-4-7.3-7.4V10.2c0-1.2-0.4-2.2-1.1-2.8c-0.6-0.6-1.4-0.8-2-0.8l-1,0c-0.3,0-0.6,0.3-0.6,0.6v0.3
		l0,21.6c0,7.4,4.6,12,12,12c7.3,0,11.9-4.7,11.9-12L235,7.8L235,7.8z">
  </path>
  <defs>
   <filter id="Adobe_OpacityMaskFilter" filterUnits="userSpaceOnUse" x="-3.6" y="-14.7" width="48.7" height="46.4">
    <feColorMatrix type="matrix" values="1 0 0 0 0  0 1 0 0 0  0 0 1 0 0  0 0 0 1 0">
    </feColorMatrix>
   </filter>
  </defs>
  <mask maskUnits="userSpaceOnUse" x="-3.6" y="-14.7" width="48.7" height="46.4" id="mask0_61_758_1_">
   <path class="st1" d="M19.1,0.6C12.5,2,7,6.1,3.7,11.5c0.7,0.4,1.6-0.2,2.9-0.8c2.2-1,5.5-2.1,10.9,1.9c6.1,4.4,10.4,3.4,12.2-1.7
			c2.3-6.6,5.3-6.6,7.1-6.5c0.5,0,0.8,0,1.1-0.1c-3.9-2.6-8.8-4.2-13.9-4.2C22.3,0.1,20.7,0.2,19.1,0.6z">
   </path>
  </mask>
  <g class="st2">
   <linearGradient id="SVGID_1_" gradientUnits="userSpaceOnUse" x1="6.9572" y1="61.2886" x2="35.6539" y2="77.8567" gradientTransform="matrix(1 0 0 -1 0 77.7894)">
    <stop offset="0" style="stop-color:#047573">
    </stop>
    <stop offset="4.000000e-02" style="stop-color:#0A796F">
    </stop>
    <stop offset="0.31" style="stop-color:#2B915E">
    </stop>
    <stop offset="0.57" style="stop-color:#43A252">
    </stop>
    <stop offset="0.8" style="stop-color:#52AD4A">
    </stop>
    <stop offset="1" style="stop-color:#57B148">
    </stop>
   </linearGradient>
   <path class="st3" d="M29.3-14.7l-32.9,19l15.8,27.4l32.9-19L29.3-14.7z">
   </path>
  </g>
  <defs>
   <filter id="Adobe_OpacityMaskFilter_1_" filterUnits="userSpaceOnUse" x="-18.5" y="-13.7" width="87.2" height="86">
    <feColorMatrix type="matrix" values="1 0 0 0 0  0 1 0 0 0  0 0 1 0 0  0 0 0 1 0">
    </feColorMatrix>
   </filter>
  </defs>
  <mask maskUnits="userSpaceOnUse" x="-18.5" y="-13.7" width="87.2" height="86" id="mask1_61_758_1_">
   <path class="st4" d="M36.6,11c-1.5,4.2-0.9,11.6-3.7,16.2C28,35.1,17.6,31.5,13,23.5c-1.5-2.5-2.1-4.5-4-6.3
			c-1.8-1.7-4.5-1.6-6.1-0.3c-3,2.5-3.1,8.2-2,12.7C4,42.5,17,50.4,29.9,47.2C42.7,44,50.4,31,47.3,18.2c-0.9-3.6-2.5-6.9-4.4-8.6
			c-1.1-1-2.1-1.4-3-1.4C38.3,8.2,37.1,9.5,36.6,11z">
   </path>
  </mask>
  <g class="st5">
   <linearGradient id="SVGID_2_" gradientUnits="userSpaceOnUse" x1="6.7056" y1="37.8772" x2="48.1818" y2="61.8235" gradientTransform="matrix(1 0 0 -1 0 77.7894)">
    <stop offset="0" style="stop-color:#047573">
    </stop>
    <stop offset="4.000000e-02" style="stop-color:#0A796F">
    </stop>
    <stop offset="0.31" style="stop-color:#2B915E">
    </stop>
    <stop offset="0.57" style="stop-color:#43A252">
    </stop>
    <stop offset="0.8" style="stop-color:#52AD4A">
    </stop>
    <stop offset="1" style="stop-color:#57B148">
    </stop>
   </linearGradient>
   <path class="st6" d="M37.8-13.7l-56.3,32.5l30.9,53.6l56.3-32.5L37.8-13.7z">
   </path>
  </g>
 </g>
</svg>