<?xml version="1.0" standalone="no"?>
<!DOCTYPE svg PUBLIC "-//W3C//DTD SVG 20010904//EN"
 "http://www.w3.org/TR/2001/REC-SVG-20010904/DTD/svg10.dtd">
<svg version="1.0" xmlns="http://www.w3.org/2000/svg"
 width="128" height="128" viewBox="0 0 3840.000000 2160.000000"
 preserveAspectRatio="xMidYMid meet">
  <defs>
    <!-- Original art is white fill with logo cut out as holes.
         This filter keeps only the hole regions and paints them white. -->
    <filter id="whiteLogo" x="0" y="0" width="100%" height="100%"
            filterUnits="objectBoundingBox" color-interpolation-filters="sRGB">
      <feFlood flood-color="#FFFFFF" result="white"/>
      <feComposite in="white" in2="SourceGraphic" operator="out"/>
    </filter>
  </defs>

  <g filter="url(#whiteLogo)"
     transform="translate(0.000000,2160.000000) scale(0.100000,-0.100000)"
     fill="#FFFFFF" stroke="none">
    <path d="M0 10800 l0 -10800 19200 0 19200 0 0 10800 0 10800 -19200 0 -19200
0 0 -10800z m13370 0 l0 -2600 -2460 0 -2460 0 0 305 0 304 -32 5 c-18 3 -82
13 -143 21 -817 119 -1560 578 -2131 1315 -223 288 -463 700 -580 995 l-39 98
55 50 c500 451 1146 867 1726 1110 346 145 753 254 1064 285 l75 7 3 353 2
352 2460 0 2460 0 0 -2600z m3515 1597 c157 -25 242 -45 345 -78 334 -109 555
-297 700 -594 64 -130 99 -238 132 -410 21 -108 22 -134 25 -1213 l4 -1102
-473 2 -473 3 -6 925 c-4 805 -7 938 -22 1025 -60 353 -190 525 -459 607 -70
21 -92 22 -545 26 l-473 3 -2 -1293 -3 -1293 -487 -3 -488 -2 0 1710 0 1711
1063 -4 c926 -3 1075 -5 1162 -20z m2404 -13 c5 -20 177 -624 382 -1342 l372
-1306 17 50 c9 27 189 631 400 1342 l384 1292 499 0 c274 0 496 -3 494 -7 -3
-5 -251 -766 -552 -1693 -301 -927 -552 -1693 -557 -1702 -8 -17 -52 -18 -703
-18 l-694 0 -20 63 c-23 75 -1072 3327 -1078 3345 -4 9 104 12 520 12 l526 0
10 -36z m3911 -1674 l0 -1710 -482 2 -483 3 -3 1708 -2 1707 485 0 485 0 0
-1710z m2315 1700 c369 -25 611 -81 826 -191 349 -179 569 -478 678 -920 46
-189 62 -314 68 -554 10 -420 -56 -792 -191 -1070 -56 -114 -120 -198 -229
-302 -161 -152 -321 -241 -532 -296 -263 -68 -472 -79 -1515 -75 l-835 3 -3
1708 -2 1707 792 0 c436 0 861 -5 943 -10z m2985 -1700 l0 -1710 -485 0 -485
0 0 1710 0 1710 485 0 485 0 0 -1710z m3701 5 c372 -935 674 -1703 672 -1707
-2 -5 -235 -8 -518 -8 l-513 0 -99 298 -100 297 -795 3 -795 2 -68 -192 c-38
-106 -85 -240 -106 -298 l-37 -105 -476 -3 c-353 -2 -476 1 -476 9 0 7 297
764 659 1683 363 919 665 1683 670 1699 l11 27 647 -2 647 -3 677 -1700z"/>
    <path d="M8538 12703 l-88 -4 -2 -192 -3 -191 -115 -13 c-644 -72 -1275 -379
-1750 -853 -105 -105 -235 -256 -247 -286 -3 -7 16 -66 42 -131 127 -318 309
-633 524 -903 95 -121 331 -356 441 -442 315 -244 677 -405 1028 -459 l82 -12
0 -203 0 -202 98 -7 c137 -11 573 1 722 19 801 98 1662 329 2413 646 166 70
481 223 608 296 112 64 329 205 403 263 33 25 67 51 76 58 13 10 13 14 -5 28
-61 49 -212 141 -470 285 -159 89 -316 179 -348 201 l-58 38 -132 -112 c-1009
-857 -1780 -1233 -2700 -1318 -133 -12 -573 -9 -595 5 -9 5 -12 68 -12 221 l0
213 -76 17 c-122 27 -250 72 -380 135 -396 189 -708 513 -930 965 -74 151
-134 301 -134 335 0 30 179 184 350 302 326 224 714 381 1070 431 l95 13 3
237 2 237 190 0 c282 0 482 -33 734 -120 381 -132 742 -361 1069 -680 140
-135 267 -279 267 -301 0 -54 -513 -593 -725 -763 -307 -246 -620 -410 -896
-471 -115 -25 -335 -31 -449 -11 -52 9 -116 23 -142 32 l-48 16 0 708 0 708
-31 7 c-42 10 -168 -3 -256 -25 -174 -45 -366 -157 -519 -303 l-86 -82 33 -89
c106 -293 316 -587 541 -756 72 -55 244 -149 296 -162 22 -6 22 -8 22 -191 l0
-185 24 -6 c133 -33 496 -32 682 3 547 102 1117 411 1729 937 165 142 446 417
574 562 l82 93 -43 52 c-24 29 -113 123 -198 211 -656 671 -1459 1091 -2255
1180 -145 16 -374 25 -507 19z"/>
    <path d="M8498 11853 l-48 -4 0 -203 0 -203 78 -13 c108 -17 194 -45 287 -93
148 -77 269 -221 476 -569 55 -93 65 -105 79 -94 8 7 158 133 333 280 l317
267 -19 28 c-28 38 -187 189 -258 244 -220 169 -464 283 -720 338 -76 16 -141
22 -288 24 -104 1 -211 1 -237 -2z"/>
    <path d="M24750 10706 l0 -966 258 0 c141 0 298 5 347 11 429 53 671 264 756
659 19 86 23 138 23 285 1 193 -10 277 -51 410 -79 255 -243 418 -506 504
-131 44 -208 52 -524 58 l-303 5 0 -966z"/>
    <path d="M30559 10985 l-296 -785 585 0 c552 0 584 1 580 18 -10 37 -561 1537
-567 1544 -3 4 -139 -346 -302 -777z"/>
  </g>
</svg>
