<svg version="1.1" id="Layer_1" xmlns:x="ns_extend;" xmlns:i="ns_ai;" xmlns:graph="ns_graphs;" xmlns="http://www.w3.org/2000/svg" xmlns:xlink="http://www.w3.org/1999/xlink" x="0px" y="0px" viewBox="0 0 933.9 293.1" style="enable-background:new 0 0 933.9 293.1;" xml:space="preserve">
 <style type="text/css">
  .st0{fill:#ED2E26;}
	.st1{fill:#FFFFFF;}
 </style>
 <metadata>
  <sfw xmlns="ns_sfw;">
   <slices>
   </slices>
   <sliceSourceBounds bottomLeftOrigin="true" height="293.1" width="933.9" x="0" y="0">
   </sliceSourceBounds>
  </sfw>
 </metadata>
 <path class="st0" d="M123.1,0c80.2,0,120.5,42.9,120.5,42.9s4.6,31.7,1.7,95.7c-4.4,96.6-122.1,154.5-122.1,154.6S5.4,235.1,1,138.6
	C-2,74.6,2.6,42.9,2.6,42.9S42.9,0,123.1,0z">
 </path>
 <path class="st1" d="M394.2,75.8c-38.9,0-70.5,31.6-70.5,70.5c0,23.5,9.9,44.5,28.6,60.6c17.5,15.1,42.6,25.5,71.7,30.4
	c4.1-2.3,12-10,14.5-15.2c-21.4-3.7-31.2-7.3-31.2-7.3c2.8-0.3,5.6-0.8,8.2-1.7c28.6-8,49.5-36.2,49.2-66.8
	C464.3,107.5,433.1,75.8,394.2,75.8L394.2,75.8z M394.2,196.5c-27.7,0-50.2-22.5-50.2-50.2c0-27.7,22.5-50.2,50.2-50.2
	c27.7,0,50.2,22.5,50.2,50.2C444.4,174,421.9,196.5,394.2,196.5L394.2,196.5z M915.5,189.8c4.3-4,11-4,15.4,0c4,4.4,4,11.2,0,15.6
	c-4.3,4-11,4-15.4,0C911.5,201,911.5,194.2,915.5,189.8z M917,203.9c3.4,3.2,8.8,3.2,12.3,0c3.2-3.6,3.2-9,0-12.6
	c-3.5-3.2-8.8-3.2-12.3,0C913.9,194.9,913.9,200.3,917,203.9z M927.8,194.8c0.1,1.7-1,3.1-2.7,3.6l3.1,4.8h-2.4l-2.8-4.7h-1.4v4.7
	h-2v-11.9h4.4c1,0,2,0.3,2.7,1C927.4,192.9,927.8,193.8,927.8,194.8L927.8,194.8z M921.6,193.2v3.5h2.1c0.5,0,1-0.1,1.4-0.5
	c0.4-0.3,0.5-0.8,0.5-1.3c0-1.2-0.7-1.7-2-1.7L921.6,193.2z M784.1,178.7l-23.8-63.2h-21.2l34.7,88.2c0,0-15.4,36.5-15.4,36.5
	c10.1,0,21.2-0.7,25.5-11.4c10.2-25,45.5-113.4,45.5-113.4h-21.2L784.1,178.7z M704.5,210.2c0,0,19.7-0.4,19.7-13.7v-120h-19.7
	V210.2z M663.6,128c-5.5-7.6-16.2-15.1-32-15.1c-26.9,0-47.2,20.9-47.2,48.7c0,13,4.4,25,12.5,34c8.7,9.6,20.7,14.7,34.7,14.7
	c13.6,0,25.2-5.5,32-15v15c0,0,19.7-0.3,19.7-13.7v-81h-19.7V128z M634.1,191.8c-11.9,0-29.7-7.9-30-29.8v-0.2
	c0-17.3,12.8-30.3,29.7-30.3c12.6,0,22.9,6.6,27.5,17.7c1.8,4,2.7,8.3,2.5,12.7c-0.1,4.5-1.1,8.8-3,12.9
	C656.2,185.4,646.2,191.8,634.1,191.8L634.1,191.8z M548.6,166.9c0,15.9-8.3,24.7-23.2,24.9c-15.2,0-22.6-8.6-22.6-26.4v-49.9H483
	v53.8c0,7.8,1.3,18.8,7.5,27.5c6.4,8.9,16.5,13.4,29.9,13.5h0.6c16.1,0,24.4-7.3,28.5-13v12.9c0,0,18.7-0.3,18.7-13.1v-81.6h-19.7
	L548.6,166.9z M876.7,153c-10.2-4.4-17.7-8.2-17.5-14.2c0.1-3.9,5.3-7.7,10.6-7.5c5.8,0.2,10,4.2,12.4,7.3c0,0,10.8-9.2,12.1-10.2
	c-5.4-9-15.1-14.6-25.7-14.7c-15.1-0.4-27.6,11.4-28.1,26.5c-0.3,12.9,7.3,18.3,17.2,23.9l16.4,9.2c3.8,2.6,5.6,4.6,5.5,8.7
	c-0.1,6.4-5.5,10.5-12.4,10.9c-5.1,0.3-9.2-2.6-13.2-6.8c-7.7-8-19.5-4.2-23.1-3c7.5,17.2,21.7,27.3,35.8,27.6
	c17.8,0.4,32.1-12.8,32.5-30C899.5,172.5,895.9,162.2,876.7,153z">
 </path>
 <path class="st1" d="M62.9,126.9c0-34.1,27-61.9,60.2-61.9c33.2,0,60.2,27,60.2,60.2c0,26.5-22.8,48.3-40.3,59.5
	c6.8,3.9,21.8,8,36.2,9.3c21.3-16.5,33.8-41.9,33.8-68.8c0.2-49.7-40-90.1-89.7-90.3s-90.1,40-90.3,89.7c0,0.2,0,0.4,0,0.6
	c0,30,12.5,56.6,36.1,77c22.1,19.1,54.3,31.8,91.1,37.8c8-4.4,21.6-17.4,26.7-25c-30.7-3.9-59.7-11.4-79.2-21.6
	C78,177.8,62.9,155.4,62.9,126.9z">
 </path>
</svg>