<?xml version="1.0" encoding="UTF-8"?>
<svg id="Layer_2" data-name="Layer 2" xmlns="http://www.w3.org/2000/svg" viewBox="0 0 341.4 45.67">
  <defs>
    <style>
      .cls-1 {
        fill: #f26533;
      }

      .cls-1, .cls-2 {
        stroke-width: 0px;
      }

      .cls-2 {
        fill: #010101;
      }
    </style>
  </defs>
  <g id="Layer_1-2" data-name="Layer 1">
    <path class="cls-2" d="M235.71,17.85c0-5.6-3.5-9.62-9.97-9.62h-21.35v29.05h7v-9.97h8.22l8.05,9.97h7.87v-.7l-7.87-9.45c5.07-1.05,8.05-4.72,8.05-9.27ZM224.86,21.35h-13.47v-7.17h13.47c2.45,0,4.02,1.4,4.02,3.67.17,2.27-1.4,3.5-4.02,3.5Z"/>
    <path class="cls-2" d="M341.4,8.05h-6.47v11.02h-17.67v-11.02h-7v29.05h7v-11.37h17.67v11.37h6.47V8.05Z"/>
    <path class="cls-2" d="M185.66,8.05l-7.7,24.32h-.35l-7.87-24.32h-12.42v29.05h6.65V13.3h.35l7.7,23.8h10.67l7.87-23.8h.35v23.8h6.82V8.05h-12.07Z"/>
    <path class="cls-2" d="M109.54,19.95c-2.45-.17-7-.7-9.62-.87-2.45-.17-3.85-1.05-3.85-2.62s1.57-2.8,7.52-2.8c5.25,0,10.15,1.22,14.52,3.15v-6.47c-4.2-2.1-8.92-2.97-14.87-2.97-8.22,0-14,3.5-14,9.27,0,4.9,3.32,7.7,10.15,8.4,2.45.35,6.65.7,9.45.87,3.15.17,4.02,1.22,4.02,2.62,0,1.92-2.27,3.15-7.7,3.15s-11.37-1.92-15.57-4.37v6.65c3.32,2.27,8.92,4.02,15.4,4.02,8.92,0,14.7-3.5,14.7-9.62,0-4.72-2.97-7.7-10.15-8.4Z"/>
    <path class="cls-2" d="M124.42,8.05v29.05h26.95v-5.95h-20.3v-5.95h19.95v-5.95h-19.95v-5.25h20.3v-5.95h-26.95Z"/>
    <path class="cls-2" d="M295.73,19.95c-2.45-.17-7-.7-9.62-.87-2.45-.17-3.85-1.05-3.85-2.62s1.57-2.8,7.52-2.8c5.25,0,10.15,1.05,14.52,3.15v-6.47c-4.2-2.1-8.92-2.97-14.87-2.97-8.22,0-14,3.5-14,9.27,0,4.9,3.32,7.7,10.15,8.4,2.45.35,6.65.7,9.45.87,3.15.17,4.02,1.22,4.02,2.62,0,1.92-2.27,3.15-7.7,3.15s-11.37-1.92-15.57-4.37v6.65c3.32,2.27,8.92,4.02,15.4,4.02,8.92,0,14.7-3.5,14.7-9.62,0-4.72-3.15-7.7-10.15-8.4Z"/>
    <path class="cls-2" d="M263.71,8.05v14.87c0,5.6-3.5,8.75-8.57,8.75s-8.57-2.97-8.57-8.75v-14.7h-7v14.17c0,10.5,6.65,15.75,15.57,15.75s15.4-5.07,15.4-15.4v-14.35h-6.82v-.35Z"/>
    <path class="cls-1" d="M65.45,22.4c0,1.4-.7,1.57-2.45,1.57-1.92,0-2.27-.35-2.45-1.75-.35-3.67-2.8-6.82-7-7-1.22-.17-1.57-.52-1.57-2.27,0-1.57.17-2.27,1.4-2.27,7,.17,12.07,5.95,12.07,11.72ZM75.77,22.4c0-10.85-7.35-22.4-24.5-22.4H17.5c-.7,0-1.05.35-1.05,1.05,0,.35.17.7.52.87,1.22,1.05,2.97,2.1,5.42,3.32,2.27,1.22,4.2,1.92,5.95,2.62.7.35,1.05.7,1.05,1.05,0,.52-.35,1.05-1.22,1.05H1.22c-.87,0-1.22.52-1.22,1.05s.17.87.52,1.22c2.1,2.27,5.6,5.07,10.67,8.22,4.37,2.8,9.97,5.77,14.35,7.87.7.35,1.05.7,1.05,1.22s-.35.87-1.22.87h-12.42c-.7,0-1.05.35-1.05.87,0,.35.17.7.52,1.05,2.8,2.62,7.35,5.25,13.3,7.87,8.05,3.32,16.1,5.42,25.2,5.42,17.32-.17,24.85-13.12,24.85-23.27ZM53.2,37.97c-8.4,0-15.57-6.82-15.57-15.57s7-15.22,15.57-15.22,15.57,6.82,15.57,15.22c0,8.57-6.82,15.57-15.57,15.57Z"/>
  </g>
</svg>