<svg width="945.010742" height="149.998276" viewBox="0 0 945.011 149.998" fill="none" xmlns="http://www.w3.org/2000/svg" xmlns:xlink="http://www.w3.org/1999/xlink">
	<desc>
			Created with Pixso.
	</desc>
	<defs/>
	<path id="Vector" d="M46.8652 120.658C76.9453 120.658 93.7305 102.461 93.7305 75.4118L93.7305 3.77271L70.2979 3.77271L70.2979 75.4118C70.2979 90.0023 61.8223 99.1824 46.8652 99.1824C31.9082 99.1824 23.4326 90.0023 23.4326 75.4118L23.4326 3.77271L0 3.77271L0 75.4118C0 102.461 16.7852 120.658 46.8652 120.658Z" fill-rule="evenodd" fill="#F16334"/>
	<path id="Vector" d="M113.392 118.525L134.996 118.525L134.996 109.672C137.322 112.459 145.964 120.656 160.755 120.656C185.684 120.656 203.3 102.131 203.3 75.7381C203.3 49.1804 187.014 30.6558 162.085 30.6558C147.127 30.6558 138.486 38.8525 136.325 41.8033L136.325 0L113.392 0L113.392 118.525ZM135.66 75.9016C135.66 59.8361 145.3 50.6558 157.93 50.6558C171.225 50.6558 180.199 60.9837 180.199 75.9016C180.199 91.1476 170.893 100.656 157.93 100.656C143.97 100.656 135.66 89.5081 135.66 75.9016Z" fill-rule="evenodd" fill="#F16334"/>
	<path id="Vector" d="M211.805 75.8996C211.805 101.637 229.587 120.654 257.507 120.654C279.111 120.654 290.745 107.867 294.068 101.802L278.945 90.4902C276.452 94.0962 269.638 100.982 257.839 100.982C245.043 100.982 235.735 92.7852 235.237 81.3094L296.395 81.3094C296.561 79.6706 296.561 78.0311 296.561 76.3916C296.561 48.3588 281.271 30.6538 254.349 30.6538C229.587 30.6538 211.805 49.9981 211.805 75.8996ZM235.902 66.5555C236.899 56.7194 243.879 49.1785 254.682 49.1785C265.15 49.1785 272.796 56.0637 273.294 66.5555L235.902 66.5555Z" fill-rule="evenodd" fill="#F16334"/>
	<path id="Vector" d="M355.652 30.6538C344.186 30.6538 335.544 36.7194 331.722 45.244L331.722 32.785L309.286 32.785L309.286 118.523L332.221 118.523L332.221 81.1459C332.221 64.0965 338.535 53.6047 355.652 53.6047L355.652 30.6538Z" fill-rule="evenodd" fill="#F16334"/>
	<path id="Vector" d="M395.772 120.654C414.552 120.654 429.177 110.162 429.177 93.4407C429.177 62.785 387.961 69.3424 387.961 55.7358C387.961 51.4735 391.617 48.8506 396.936 48.8506C405.079 48.8506 409.898 53.7686 412.557 57.0473L427.68 45.8998C423.525 39.1784 414.385 30.6538 397.933 30.6538C380.15 30.6538 366.356 40.162 366.356 56.0637C366.356 86.5556 407.405 81.4736 407.405 94.5882C407.405 99.5067 403.25 102.293 396.769 102.293C386.964 102.293 381.147 97.8672 376.826 92.9487L363.365 104.752C368.019 112.129 378.654 120.654 395.772 120.654Z" fill-rule="evenodd" fill="#F16334"/>
	<path id="Vector" d="M470.827 120.656C482.129 120.656 490.438 114.427 494.094 108.525L494.094 118.525L516.529 118.525L516.529 32.7875L493.596 32.7875L493.596 84.2631C493.596 93.4432 487.612 100.328 478.14 100.328C470.329 100.328 463.682 94.4272 463.682 84.9186L463.682 32.7875L440.747 32.7875L440.747 82.2959C440.747 100.492 446.065 120.656 470.827 120.656Z" fill-rule="evenodd" fill="#F16334"/>
	<path id="Vector" d="M540.068 142.129C547.88 146.392 560.012 149.998 571.978 149.998C597.57 149.998 618.677 139.67 618.677 107.703L618.677 32.785L597.072 32.785L597.072 41.8014C594.579 38.5227 585.771 30.6538 571.146 30.6538C546.385 30.6538 528.769 49.3423 528.769 75.7362C528.769 102.129 545.222 120.654 570.315 120.654C585.438 120.654 593.914 112.129 595.742 109.67L595.742 113.604C595.742 126.883 584.275 130.654 571.812 130.654C559.846 130.654 549.874 126.228 547.049 124.752L540.068 142.129ZM596.407 75.5719C596.407 90.8179 587.433 100.654 574.138 100.654C561.176 100.654 551.868 90.6537 551.868 75.5719C551.868 60.4899 561.009 50.6539 573.972 50.6539C587.433 50.6539 596.407 60.9818 596.407 75.5719Z" fill-rule="evenodd" fill="#F16334"/>
	<path id="Vector" d="M642.312 142.129C650.124 146.392 662.255 149.998 674.221 149.998C699.813 149.998 720.92 139.67 720.92 107.703L720.92 32.785L699.315 32.785L699.315 41.8014C696.823 38.5227 688.015 30.6538 673.39 30.6538C648.628 30.6538 631.012 49.3423 631.012 75.7362C631.012 102.129 647.465 120.654 672.559 120.654C687.683 120.654 696.157 112.129 697.986 109.67L697.986 113.604C697.986 126.883 686.52 130.654 674.055 130.654C662.09 130.654 652.118 126.228 649.293 124.752L642.312 142.129ZM698.65 75.5719C698.65 90.8179 689.677 100.654 676.382 100.654C663.419 100.654 654.112 90.6537 654.112 75.5719C654.112 60.4899 663.253 50.6539 676.215 50.6539C689.677 50.6539 698.65 60.9818 698.65 75.5719Z" fill-rule="evenodd" fill="#F16334"/>
	<path id="Vector" d="M733.578 75.8996C733.578 101.637 751.362 120.654 779.277 120.654C800.885 120.654 812.518 107.867 815.84 101.802L800.72 90.4902C798.223 94.0962 791.412 100.982 779.614 100.982C766.812 100.982 757.512 92.7852 757.01 81.3094L818.165 81.3094C818.337 79.6706 818.337 78.0311 818.337 76.3916C818.337 48.3588 803.045 30.6538 776.12 30.6538C751.362 30.6538 733.578 49.9981 733.578 75.8996ZM757.677 66.5555C758.675 56.7194 765.649 49.1785 776.457 49.1785C786.927 49.1785 794.569 56.0637 795.064 66.5555L757.677 66.5555Z" fill-rule="evenodd" fill="#F16334"/>
	<path id="Vector" d="M857.652 120.654C876.433 120.654 891.058 110.162 891.058 93.4407C891.058 62.785 849.846 69.3424 849.846 55.7358C849.846 51.4735 853.498 48.8506 858.815 48.8506C866.96 48.8506 871.783 53.7686 874.438 57.0473L889.565 45.8998C885.41 39.1784 876.268 30.6538 859.812 30.6538C842.03 30.6538 828.237 40.162 828.237 56.0637C828.237 86.5556 869.285 81.4736 869.285 94.5882C869.285 99.5067 865.13 102.293 858.65 102.293C848.848 102.293 843.027 97.8672 838.708 92.9487L825.245 104.752C829.902 112.129 840.538 120.654 857.652 120.654Z" fill-rule="evenodd" fill="#F16334"/>
	<path id="Vector" d="M905.455 32.7876L896.147 32.7876L896.147 51.1483L905.29 51.1483L905.29 84.9188C905.29 108.197 914.433 119.673 935.208 119.673C941.522 119.673 945.01 118.853 945.01 118.853L945.01 99.5093C943.18 99.6728 942.348 99.6728 940.855 99.6728C932.05 99.6728 928.06 97.0501 928.06 84.2633L928.06 51.1483L944.343 51.1483L944.343 32.7876L928.06 32.7876L928.06 14.7548L905.455 14.7548L905.455 32.7876Z" fill-rule="evenodd" fill="#F16334"/>
</svg>
